<svg id="visual" viewBox="0 0 960 540" width="960" height="540" xmlns="http://www.w3.org/2000/svg" xmlns:xlink="http://www.w3.org/1999/xlink" version="1.1"><path d="M0 122L26.7 116.7C53.3 111.3 106.7 100.7 160 94.5C213.3 88.3 266.7 86.7 320 90.3C373.3 94 426.7 103 480 108C533.3 113 586.7 114 640 110.7C693.3 107.3 746.7 99.7 800 97.7C853.3 95.7 906.7 99.3 933.3 101.2L960 103L960 0L933.3 0C906.7 0 853.3 0 800 0C746.7 0 693.3 0 640 0C586.7 0 533.3 0 480 0C426.7 0 373.3 0 320 0C266.7 0 213.3 0 160 0C106.7 0 53.3 0 26.7 0L0 0Z" fill="#62cff4"></path><path d="M0 96L26.7 95.7C53.3 95.3 106.7 94.7 160 91.5C213.3 88.3 266.7 82.7 320 82.7C373.3 82.7 426.7 88.3 480 89C533.3 89.7 586.7 85.3 640 81.2C693.3 77 746.7 73 800 72C853.3 71 906.7 73 933.3 74L960 75L960 0L933.3 0C906.7 0 853.3 0 800 0C746.7 0 693.3 0 640 0C586.7 0 533.3 0 480 0C426.7 0 373.3 0 320 0C266.7 0 213.3 0 160 0C106.7 0 53.3 0 26.7 0L0 0Z" fill="#0bb3fd"></path><path d="M0 59L26.7 60C53.3 61 106.7 63 160 64.2C213.3 65.3 266.7 65.7 320 65.8C373.3 66 426.7 66 480 64.7C533.3 63.3 586.7 60.7 640 59.7C693.3 58.7 746.7 59.3 800 59.8C853.3 60.3 906.7 60.7 933.3 60.8L960 61L960 0L933.3 0C906.7 0 853.3 0 800 0C746.7 0 693.3 0 640 0C586.7 0 533.3 0 480 0C426.7 0 373.3 0 320 0C266.7 0 213.3 0 160 0C106.7 0 53.3 0 26.7 0L0 0Z" fill="#0090fe"></path><path d="M0 21L26.7 21C53.3 21 106.7 21 160 25.2C213.3 29.3 266.7 37.7 320 38.3C373.3 39 426.7 32 480 29.2C533.3 26.3 586.7 27.7 640 30.2C693.3 32.7 746.7 36.3 800 38.5C853.3 40.7 906.7 41.3 933.3 41.7L960 42L960 0L933.3 0C906.7 0 853.3 0 800 0C746.7 0 693.3 0 640 0C586.7 0 533.3 0 480 0C426.7 0 373.3 0 320 0C266.7 0 213.3 0 160 0C106.7 0 53.3 0 26.7 0L0 0Z" fill="#2c67f2"></path></svg>