<svg id="visual" viewBox="0 0 900 300" width="900" height="300" xmlns="http://www.w3.org/2000/svg" xmlns:xlink="http://www.w3.org/1999/xlink" version="1.1"><rect x="0" y="0" width="900" height="300" fill="#FFFFFF"></rect><defs><linearGradient id="grad1_0" x1="66.7%" y1="0%" x2="100%" y2="100%"><stop offset="-10%" stop-color="#ffffff" stop-opacity="1"></stop><stop offset="110%" stop-color="#ffffff" stop-opacity="1"></stop></linearGradient></defs><defs><linearGradient id="grad2_0" x1="0%" y1="0%" x2="33.3%" y2="100%"><stop offset="-10%" stop-color="#ffffff" stop-opacity="1"></stop><stop offset="110%" stop-color="#ffffff" stop-opacity="1"></stop></linearGradient></defs><g transform="translate(900, 0)"><path d="M0 300C-53.8 292.9 -107.5 285.8 -150 259.8C-192.5 233.8 -223.7 188.9 -246.8 142.5C-269.9 96.1 -285 48 -300 0L0 0Z" fill="#2c67f2"></path></g><g transform="translate(0, 300)"><path d="M0 -300C51 -290 101.9 -280.1 148 -256.3C194.1 -232.6 235.3 -195 259.8 -150C284.3 -105 292.2 -52.5 300 0L0 0Z" fill="#2c67f2"></path></g></svg>