<svg id="visual" viewBox="0 0 900 600" width="900" height="600" xmlns="http://www.w3.org/2000/svg" xmlns:xlink="http://www.w3.org/1999/xlink" version="1.1"><path d="M0 196L21.5 212.8C43 229.7 86 263.3 128.8 270.2C171.7 277 214.3 257 257.2 230.7C300 204.3 343 171.7 385.8 169.5C428.7 167.3 471.3 195.7 514.2 213.3C557 231 600 238 642.8 223.2C685.7 208.3 728.3 171.7 771.2 161.8C814 152 857 169 878.5 177.5L900 186L900 601L878.5 601C857 601 814 601 771.2 601C728.3 601 685.7 601 642.8 601C600 601 557 601 514.2 601C471.3 601 428.7 601 385.8 601C343 601 300 601 257.2 601C214.3 601 171.7 601 128.8 601C86 601 43 601 21.5 601L0 601Z" fill="#f0f8ff"></path><path d="M0 335L21.5 326.3C43 317.7 86 300.3 128.8 288C171.7 275.7 214.3 268.3 257.2 281.2C300 294 343 327 385.8 332.3C428.7 337.7 471.3 315.3 514.2 305.8C557 296.3 600 299.7 642.8 290.7C685.7 281.7 728.3 260.3 771.2 263.7C814 267 857 295 878.5 309L900 323L900 601L878.5 601C857 601 814 601 771.2 601C728.3 601 685.7 601 642.8 601C600 601 557 601 514.2 601C471.3 601 428.7 601 385.8 601C343 601 300 601 257.2 601C214.3 601 171.7 601 128.8 601C86 601 43 601 21.5 601L0 601Z" fill="#a2bbdb"></path><path d="M0 307L21.5 317.8C43 328.7 86 350.3 128.8 363.2C171.7 376 214.3 380 257.2 364.8C300 349.7 343 315.3 385.8 304C428.7 292.7 471.3 304.3 514.2 314.2C557 324 600 332 642.8 345.8C685.7 359.7 728.3 379.3 771.2 380.2C814 381 857 363 878.5 354L900 345L900 601L878.5 601C857 601 814 601 771.2 601C728.3 601 685.7 601 642.8 601C600 601 557 601 514.2 601C471.3 601 428.7 601 385.8 601C343 601 300 601 257.2 601C214.3 601 171.7 601 128.8 601C86 601 43 601 21.5 601L0 601Z" fill="#617eb6"></path><path d="M0 471L21.5 473.5C43 476 86 481 128.8 474C171.7 467 214.3 448 257.2 440C300 432 343 435 385.8 428C428.7 421 471.3 404 514.2 400.7C557 397.3 600 407.7 642.8 413.8C685.7 420 728.3 422 771.2 419.3C814 416.7 857 409.3 878.5 405.7L900 402L900 601L878.5 601C857 601 814 601 771.2 601C728.3 601 685.7 601 642.8 601C600 601 557 601 514.2 601C471.3 601 428.7 601 385.8 601C343 601 300 601 257.2 601C214.3 601 171.7 601 128.8 601C86 601 43 601 21.5 601L0 601Z" fill="#2e428d"></path><path d="M0 538L21.5 536.2C43 534.3 86 530.7 128.8 516.3C171.7 502 214.3 477 257.2 471.8C300 466.7 343 481.3 385.8 495C428.7 508.7 471.3 521.3 514.2 528.7C557 536 600 538 642.8 540C685.7 542 728.3 544 771.2 534.3C814 524.7 857 503.3 878.5 492.7L900 482L900 601L878.5 601C857 601 814 601 771.2 601C728.3 601 685.7 601 642.8 601C600 601 557 601 514.2 601C471.3 601 428.7 601 385.8 601C343 601 300 601 257.2 601C214.3 601 171.7 601 128.8 601C86 601 43 601 21.5 601L0 601Z" fill="#03045e"></path></svg>