<svg id="visual" viewBox="0 0 900 600" width="900" height="600" xmlns="http://www.w3.org/2000/svg" xmlns:xlink="http://www.w3.org/1999/xlink" version="1.1"><path d="M0 447L21.5 446.7C43 446.3 86 445.7 128.8 441.8C171.7 438 214.3 431 257.2 424.3C300 417.7 343 411.3 385.8 406.7C428.7 402 471.3 399 514.2 406.2C557 413.3 600 430.7 642.8 434.8C685.7 439 728.3 430 771.2 430.2C814 430.3 857 439.7 878.5 444.3L900 449L900 601L878.5 601C857 601 814 601 771.2 601C728.3 601 685.7 601 642.8 601C600 601 557 601 514.2 601C471.3 601 428.7 601 385.8 601C343 601 300 601 257.2 601C214.3 601 171.7 601 128.8 601C86 601 43 601 21.5 601L0 601Z" fill="#fafafa"></path><path d="M0 450L21.5 449.3C43 448.7 86 447.3 128.8 450C171.7 452.7 214.3 459.3 257.2 463C300 466.7 343 467.3 385.8 467.8C428.7 468.3 471.3 468.7 514.2 470.5C557 472.3 600 475.7 642.8 476.5C685.7 477.3 728.3 475.7 771.2 466.3C814 457 857 440 878.5 431.5L900 423L900 601L878.5 601C857 601 814 601 771.2 601C728.3 601 685.7 601 642.8 601C600 601 557 601 514.2 601C471.3 601 428.7 601 385.8 601C343 601 300 601 257.2 601C214.3 601 171.7 601 128.8 601C86 601 43 601 21.5 601L0 601Z" fill="#daf0f9"></path><path d="M0 506L21.5 503.7C43 501.3 86 496.7 128.8 492.5C171.7 488.3 214.3 484.7 257.2 482.3C300 480 343 479 385.8 483.8C428.7 488.7 471.3 499.3 514.2 493.2C557 487 600 464 642.8 462.5C685.7 461 728.3 481 771.2 482.3C814 483.7 857 466.3 878.5 457.7L900 449L900 601L878.5 601C857 601 814 601 771.2 601C728.3 601 685.7 601 642.8 601C600 601 557 601 514.2 601C471.3 601 428.7 601 385.8 601C343 601 300 601 257.2 601C214.3 601 171.7 601 128.8 601C86 601 43 601 21.5 601L0 601Z" fill="#b8e5f7"></path><path d="M0 520L21.5 521C43 522 86 524 128.8 527C171.7 530 214.3 534 257.2 532.2C300 530.3 343 522.7 385.8 519.8C428.7 517 471.3 519 514.2 523C557 527 600 533 642.8 531C685.7 529 728.3 519 771.2 510.2C814 501.3 857 493.7 878.5 489.8L900 486L900 601L878.5 601C857 601 814 601 771.2 601C728.3 601 685.7 601 642.8 601C600 601 557 601 514.2 601C471.3 601 428.7 601 385.8 601C343 601 300 601 257.2 601C214.3 601 171.7 601 128.8 601C86 601 43 601 21.5 601L0 601Z" fill="#92daf5"></path><path d="M0 541L21.5 540C43 539 86 537 128.8 535C171.7 533 214.3 531 257.2 537.2C300 543.3 343 557.7 385.8 564.3C428.7 571 471.3 570 514.2 564.7C557 559.3 600 549.7 642.8 545.7C685.7 541.7 728.3 543.3 771.2 541.7C814 540 857 535 878.5 532.5L900 530L900 601L878.5 601C857 601 814 601 771.2 601C728.3 601 685.7 601 642.8 601C600 601 557 601 514.2 601C471.3 601 428.7 601 385.8 601C343 601 300 601 257.2 601C214.3 601 171.7 601 128.8 601C86 601 43 601 21.5 601L0 601Z" fill="#62cff4"></path></svg>