<svg id="visual" viewBox="0 0 900 600" width="900" height="600" xmlns="http://www.w3.org/2000/svg" xmlns:xlink="http://www.w3.org/1999/xlink" version="1.1"><rect x="0" y="0" width="900" height="600" fill="#2c67f2"></rect><path d="M0 295L113 295L113 362L225 362L225 327L338 327L338 368L450 368L450 358L563 358L563 343L675 343L675 332L788 332L788 300L900 300L900 241L900 601L900 601L788 601L788 601L675 601L675 601L563 601L563 601L450 601L450 601L338 601L338 601L225 601L225 601L113 601L113 601L0 601Z" fill="#2c67f2"></path><path d="M0 393L113 393L113 351L225 351L225 331L338 331L338 319L450 319L450 357L563 357L563 314L675 314L675 368L788 368L788 324L900 324L900 298L900 601L900 601L788 601L788 601L675 601L675 601L563 601L563 601L450 601L450 601L338 601L338 601L225 601L225 601L113 601L113 601L0 601Z" fill="#1c58c8"></path><path d="M0 364L113 364L113 442L225 442L225 376L338 376L338 384L450 384L450 370L563 370L563 341L675 341L675 376L788 376L788 404L900 404L900 357L900 601L900 601L788 601L788 601L675 601L675 601L563 601L563 601L450 601L450 601L338 601L338 601L225 601L225 601L113 601L113 601L0 601Z" fill="#1348a0"></path><path d="M0 451L113 451L113 400L225 400L225 412L338 412L338 479L450 479L450 482L563 482L563 425L675 425L675 398L788 398L788 454L900 454L900 468L900 601L900 601L788 601L788 601L675 601L675 601L563 601L563 601L450 601L450 601L338 601L338 601L225 601L225 601L113 601L113 601L0 601Z" fill="#123878"></path><path d="M0 467L113 467L113 503L225 503L225 490L338 490L338 493L450 493L450 497L563 497L563 450L675 450L675 483L788 483L788 503L900 503L900 467L900 601L900 601L788 601L788 601L675 601L675 601L563 601L563 601L450 601L450 601L338 601L338 601L225 601L225 601L113 601L113 601L0 601Z" fill="#132953"></path><path d="M0 542L113 542L113 559L225 559L225 524L338 524L338 516L450 516L450 573L563 573L563 526L675 526L675 568L788 568L788 543L900 543L900 510L900 601L900 601L788 601L788 601L675 601L675 601L563 601L563 601L450 601L450 601L338 601L338 601L225 601L225 601L113 601L113 601L0 601Z" fill="#111a2f"></path></svg>