<svg id="visual" viewBox="0 0 900 600" width="900" height="600" xmlns="http://www.w3.org/2000/svg" xmlns:xlink="http://www.w3.org/1999/xlink" version="1.1"><path d="M0 67L82 67L82 115L164 115L164 55L245 55L245 79L327 79L327 127L409 127L409 103L491 103L491 115L573 115L573 85L655 85L655 121L736 121L736 91L818 91L818 43L900 43L900 49L900 0L900 0L818 0L818 0L736 0L736 0L655 0L655 0L573 0L573 0L491 0L491 0L409 0L409 0L327 0L327 0L245 0L245 0L164 0L164 0L82 0L82 0L0 0Z" fill="#2c67f2"></path><path d="M0 187L82 187L82 229L164 229L164 247L245 247L245 181L327 181L327 277L409 277L409 235L491 235L491 301L573 301L573 229L655 229L655 199L736 199L736 169L818 169L818 259L900 259L900 193L900 47L900 41L818 41L818 89L736 89L736 119L655 119L655 83L573 83L573 113L491 113L491 101L409 101L409 125L327 125L327 77L245 77L245 53L164 53L164 113L82 113L82 65L0 65Z" fill="#1954be"></path><path d="M0 223L82 223L82 301L164 301L164 325L245 325L245 271L327 271L327 337L409 337L409 325L491 325L491 379L573 379L573 319L655 319L655 277L736 277L736 271L818 271L818 313L900 313L900 277L900 191L900 257L818 257L818 167L736 167L736 197L655 197L655 227L573 227L573 299L491 299L491 233L409 233L409 275L327 275L327 179L245 179L245 245L164 245L164 227L82 227L82 185L0 185Z" fill="#12408c"></path><path d="M0 391L82 391L82 409L164 409L164 457L245 457L245 391L327 391L327 457L409 457L409 379L491 379L491 475L573 475L573 391L655 391L655 367L736 367L736 367L818 367L818 487L900 487L900 355L900 275L900 311L818 311L818 269L736 269L736 275L655 275L655 317L573 317L573 377L491 377L491 323L409 323L409 335L327 335L327 269L245 269L245 323L164 323L164 299L82 299L82 221L0 221Z" fill="#132d5c"></path><path d="M0 601L82 601L82 601L164 601L164 601L245 601L245 601L327 601L327 601L409 601L409 601L491 601L491 601L573 601L573 601L655 601L655 601L736 601L736 601L818 601L818 601L900 601L900 601L900 353L900 485L818 485L818 365L736 365L736 365L655 365L655 389L573 389L573 473L491 473L491 377L409 377L409 455L327 455L327 389L245 389L245 455L164 455L164 407L82 407L82 389L0 389Z" fill="#111a2f"></path></svg>